PathFileType	4	(X/Y/Z)	C:/Users/opensim2020/Desktop/walking_exp_matlab/subject03_walking14_straight_01.trc	
DataRate	CameraRate	NumFrames	NumMarkers	Units	OrigDataRate	OrigDataStartFrame	OrigNumFrames	
100.00	100.00	8	47	mm	100.00	629	205	
Frame#	Time	LFHD			RFHD			LBHD			RBHD			C7			T10			CLAV			STRN			RBAK			LSHO			LUPA			LELB			LFRM			LWRA			LWRB			LFIN			RSHO			RUPA			RELB			RFRM			RWRA			RWRB			RFIN			LASI			RASI			LPSI			RPSI			LTHI			LKNE			LTIB			LANK			LHEE			LTOE			RTHI			RKNE			RTIB			RANK			RHEE			RTOE			*39			*40			*41			*42			*43			*44			*45			*46			
		X1	Y1	Z1	X2	Y2	Z2	X3	Y3	Z3	X4	Y4	Z4	X5	Y5	Z5	X6	Y6	Z6	X7	Y7	Z7	X8	Y8	Z8	X9	Y9	Z9	X10	Y10	Z10	X11	Y11	Z11	X12	Y12	Z12	X13	Y13	Z13	X14	Y14	Z14	X15	Y15	Z15	X16	Y16	Z16	X17	Y17	Z17	X18	Y18	Z18	X19	Y19	Z19	X20	Y20	Z20	X21	Y21	Z21	X22	Y22	Z22	X23	Y23	Z23	X24	Y24	Z24	X25	Y25	Z25	X26	Y26	Z26	X27	Y27	Z27	X28	Y28	Z28	X29	Y29	Z29	X30	Y30	Z30	X31	Y31	Z31	X32	Y32	Z32	X33	Y33	Z33	X34	Y34	Z34	X35	Y35	Z35	X36	Y36	Z36	X37	Y37	Z37	X38	Y38	Z38	X39	Y39	Z39	X40	Y40	Z40	X41	Y41	Z41	X42	Y42	Z42	X43	Y43	Z43	X44	Y44	Z44	X45	Y45	Z45	X46	Y46	Z46	X47	Y47	Z47	

154	1.530	1381.19824	582.74097	1609.79919	1513.36462	580.41278	1622.79114	1387.97498	457.56958	1560.01904	1518.12524	459.74622	1572.35986	1449.86182	435.18875	1400.59546	1452.33411	423.47491	1086.70117	1455.74841	561.10474	1333.64551	1457.44568	618.30493	1172.37195	1548.39197	392.32593	1223.13477	1297.81323	518.67145	1364.85791	1228.15906	503.96860	1165.95667	1218.45300	501.22446	1042.09863	1217.98730	506.74817	911.37122	1245.30237	494.90726	790.18274	1189.22156	486.12833	801.58026	1198.62451	456.44818	717.27185	1612.80762	505.62061	1359.61560	1697.91418	527.05402	1144.77039	1719.22559	556.92316	1038.05005	1728.59827	607.23389	911.14594	1700.11438	666.44305	829.74609	1738.62146	632.21582	814.06793	1737.00476	680.00616	758.07361	1349.13916	604.10651	937.19202	1583.68542	578.28729	924.89447	1378.74292	436.67520	951.64935	1528.29932	421.77594	953.06482	1307.64307	609.25354	632.82483	1363.07825	658.07385	467.96759	1370.57092	614.96741	272.24628	1422.90698	588.17285	69.23873	1459.50525	544.67554	36.65486	1443.77795	737.28607	36.33610	1629.17798	520.34283	623.71356	1609.44006	536.37744	443.08301	1604.74194	386.46921	323.95135	1550.25012	215.08235	197.48067	1497.47058	172.27843	221.97922	1514.26550	247.00797	58.28812	1430.85925	496.11539	1668.70300																					 
155	1.540	1380.66943	595.59668	1610.65393	1512.81104	593.36084	1623.87512	1387.56934	470.40414	1560.92651	1517.66785	472.55200	1573.54797	1449.37671	448.07480	1401.61804	1451.79578	436.73254	1087.38367	1456.02197	573.80988	1334.59973	1458.06787	631.19556	1173.43091	1547.20203	404.48199	1223.55090	1297.75256	532.23596	1365.14392	1228.36755	520.08661	1165.91138	1218.20056	518.70258	1042.13306	1218.11975	526.44202	911.50757	1245.78833	516.76947	790.43457	1189.66187	507.86111	801.38580	1198.89539	484.54913	715.93256	1612.98096	517.39331	1360.05945	1697.80481	537.69763	1144.75476	1719.18787	566.84937	1037.70715	1728.36926	614.96545	909.89667	1699.69714	672.58533	827.37604	1738.37561	638.15283	812.33209	1735.77673	684.06213	754.50391	1348.96423	617.20374	937.21741	1584.06604	590.36542	925.31128	1378.08264	450.04340	952.99805	1527.61902	434.44351	953.12427	1308.28735	615.94818	632.61707	1362.15613	663.93842	466.98688	1369.98059	617.93195	272.05420	1422.78918	588.33838	69.23878	1459.38452	544.74579	36.74861	1443.91895	737.35895	36.23941	1628.82056	538.46039	624.21448	1609.91479	562.03674	443.96298	1604.33875	412.09857	326.61639	1551.48584	238.45778	203.42223	1497.55493	195.37006	226.16650	1520.11572	271.85004	63.59402	1425.96729	510.47037	1671.31628																					 
156	1.550	1380.20630	608.39221	1611.62488	1512.27136	606.23505	1625.12830	1387.24902	483.05554	1561.98828	1517.21765	485.29953	1574.89172	1448.93042	460.90601	1402.77600	1451.56665	449.67801	1088.42651	1456.29041	586.33466	1335.70129	1458.64636	643.98175	1174.64136	1545.83521	416.54358	1224.01453	1297.73438	545.55585	1365.58203	1228.59827	536.38776	1166.16785	1218.15137	536.54523	1042.37048	1218.26367	546.32196	911.86749	1246.25574	539.03937	790.95636	1190.05811	529.97968	801.48358	1199.33862	513.52454	715.25201	1613.25488	529.07324	1360.57141	1697.69543	547.97620	1144.83020	1718.90430	576.06915	1037.24695	1728.01062	622.26929	908.66071	1699.08484	678.23242	824.87750	1738.16895	643.71936	810.64417	1734.40222	687.80420	751.04852	1348.78540	630.11591	937.63123	1584.38635	602.74188	925.87524	1377.78699	463.01981	954.57996	1527.19373	447.06387	953.70459	1308.39209	623.96887	633.23822	1362.09460	669.01648	466.71085	1369.70325	621.15009	271.77640	1422.58740	588.51428	69.34335	1459.12610	544.63751	36.89880	1444.24976	737.36279	36.11684	1628.77893	556.21875	625.65192	1610.59033	587.65729	446.21234	1604.39050	437.47937	329.72745	1552.66541	263.45615	207.38017	1497.60315	219.81996	228.39204	1526.18774	299.42215	67.80849	1429.41809	521.95496	1670.68091																					 
157	1.560	1379.74451	621.11273	1612.68970	1511.88843	619.09814	1626.47107	1387.00989	495.68478	1563.29651	1516.85461	498.00510	1576.38196	1448.69434	473.68436	1404.15820	1451.34302	462.49377	1089.56543	1456.63000	598.78357	1336.95667	1459.21582	656.65338	1175.99146	1544.52551	428.52524	1224.71936	1297.80176	558.66937	1366.17432	1228.88977	552.63239	1166.60168	1218.33386	554.36206	1042.82019	1218.66858	566.59619	912.55231	1246.30688	562.02863	791.76770	1190.65344	552.59460	801.90704	1199.85474	543.20135	715.56476	1613.51306	540.66711	1361.28918	1697.61682	558.01166	1145.10107	1718.76135	585.58252	1037.12097	1727.57971	629.31403	907.56287	1698.30371	683.44257	822.52631	1737.65735	649.02783	809.08960	1732.94531	691.15460	747.92102	1348.36316	642.79309	938.33624	1584.37061	615.42194	926.67828	1377.50769	475.02924	956.37799	1526.96570	459.78598	954.74475	1308.46704	632.76495	634.12067	1362.20593	674.40656	466.77469	1369.49902	624.32178	271.60080	1422.27417	588.64795	69.43622	1458.80896	544.51062	37.12612	1444.26477	737.39417	36.06927	1628.29126	574.92181	627.50293	1610.97559	612.71613	449.39212	1605.10938	463.24533	332.74121	1553.74841	289.59366	209.61787	1497.72742	245.21184	228.47832	1531.47742	328.62207	70.65889	1429.05762	534.85669	1672.03796																					 
158	1.570	1379.38818	633.82739	1613.84241	1511.41699	631.90601	1627.84949	1386.71619	508.33493	1564.71924	1516.52026	510.64328	1578.00024	1448.58093	486.33423	1405.59607	1451.11707	475.26581	1090.88318	1456.97900	611.16144	1338.31445	1459.65149	669.19067	1177.35559	1543.26587	440.55359	1225.53662	1297.93262	571.53894	1367.08203	1229.63135	568.82599	1167.25891	1218.78674	572.35718	1043.73633	1219.31396	587.01257	913.62573	1247.62207	585.08020	793.16504	1191.92004	575.36749	802.61511	1200.44409	573.46210	716.85577	1613.72266	552.13690	1362.20593	1697.82397	568.02631	1145.74304	1718.21277	594.53967	1037.01636	1726.97168	636.07660	906.67706	1697.41174	688.28387	820.44196	1737.05981	653.86627	807.82239	1731.46545	694.09967	745.16986	1347.71863	655.13007	939.33270	1584.07617	628.44580	927.96454	1377.60535	487.58978	957.94757	1526.89746	472.52118	956.30853	1308.81726	642.13373	634.97339	1362.58203	679.43976	466.79150	1369.52014	627.11304	271.44153	1422.04639	588.82404	69.69386	1458.53052	544.47876	37.42727	1444.35254	737.41461	35.99954	1627.30518	594.67841	629.79742	1611.01746	637.46301	453.09164	1605.71924	489.07358	335.54303	1554.81726	316.62827	210.08888	1498.26538	271.23343	226.53870	1536.49158	360.24850	72.64146	1426.89758	547.98291	1673.30139																					 
159	1.580	1379.03784	646.44543	1614.99780	1511.10742	644.63580	1629.22046	1386.53784	520.80652	1566.12842	1516.21960	523.21741	1579.62317	1448.65186	498.79578	1406.96179	1450.80017	487.94141	1092.19556	1457.30823	623.50934	1339.64661	1460.02698	681.64008	1178.75549	1542.31384	452.62167	1226.57996	1298.05945	584.23718	1368.23193	1230.01038	584.83325	1168.31946	1219.50513	590.26044	1045.01660	1220.30713	607.80853	915.25781	1248.18347	608.57098	794.86328	1192.98218	598.76849	804.07495	1201.52795	603.58099	719.45959	1613.84143	563.54150	1363.29346	1697.67102	577.68207	1146.41821	1717.76965	603.44812	1037.33728	1726.23828	642.52008	906.11713	1696.35510	692.78491	818.61615	1736.44678	658.28699	806.85553	1730.06580	696.71161	742.88995	1346.93298	667.18005	940.36865	1583.49841	641.53918	929.68036	1377.76660	499.44958	959.37738	1526.97717	485.28067	958.17163	1308.48193	652.34003	635.55969	1362.72363	684.55969	465.89508	1369.59802	629.58252	271.39905	1421.93530	588.97815	69.83681	1458.32007	544.41125	37.71011	1444.43506	737.47540	35.96399	1626.87549	614.57721	632.29913	1610.71936	661.69580	457.06567	1606.15491	514.54260	338.16815	1555.95776	344.63605	208.83479	1499.26111	298.00107	222.67198	1540.62170	393.77594	73.43923	1428.12256	560.49359	1674.74011																					 
160	1.590	1378.78088	659.06653	1616.06604	1510.78308	657.35889	1630.52588	1386.37476	533.32166	1567.46167	1515.99133	535.77344	1581.19971	1448.61145	511.35840	1408.34692	1450.41809	500.37198	1093.55786	1457.62769	635.94580	1340.97400	1460.23279	693.97260	1180.04895	1541.64697	464.80063	1227.75012	1298.22437	596.72614	1369.56335	1230.65503	600.44531	1169.67859	1220.27063	608.33087	1046.64294	1221.37134	628.85968	917.39441	1250.13330	632.77191	797.44464	1194.40649	622.69867	806.02362	1202.68555	633.83093	722.92743	1613.91113	575.07245	1364.62817	1697.49023	587.26178	1147.33044	1717.27917	612.42212	1037.89453	1725.32263	648.74188	905.85785	1695.23438	696.95764	817.16711	1735.48047	662.51416	806.18561	1728.67920	699.08032	741.05219	1346.11438	679.13232	941.43732	1582.74438	654.63080	931.75165	1377.84363	511.70120	960.56226	1527.09644	498.04834	960.23303	1308.76013	662.17114	635.78046	1364.21118	688.64661	465.15042	1369.68750	631.47064	271.42630	1421.97119	589.30316	70.29600	1458.05469	544.42548	38.19370	1444.59167	737.54413	35.90553	1625.93677	635.24695	635.07330	1610.15979	685.25348	461.24969	1606.15759	539.97046	340.25955	1557.17761	373.58762	205.98222	1500.55078	325.58621	216.84512	1544.43127	428.98743	73.43882	1425.45190	573.48199	1676.50281																					 
161	1.600	1378.56885	671.64490	1617.14795	1510.58582	669.95569	1631.75610	1386.23047	545.84808	1568.73291	1515.69702	548.44965	1582.52173	1448.58740	523.68707	1409.61365	1449.99841	512.86871	1094.84473	1457.77441	648.21313	1342.14941	1460.27869	706.27502	1181.26721	1541.37500	476.98926	1229.13623	1298.42505	609.09607	1371.04895	1231.09021	615.75867	1171.37134	1221.16931	626.66571	1048.46082	1222.53735	650.26868	919.95941	1251.66333	657.79047	800.56995	1196.09192	647.16998	808.52643	1204.13232	663.90973	727.17535	1613.84045	586.72595	1366.10803	1696.73804	596.72028	1148.19604	1716.18945	620.85687	1038.50916	1724.23633	654.70929	905.77960	1693.98962	700.91760	815.94629	1734.54614	666.51306	805.82953	1727.35181	701.26819	739.54730	1345.24646	691.00116	942.37122	1581.81384	667.62976	934.15295	1377.84448	523.98511	961.74768	1527.19763	510.73764	962.33350	1309.24341	671.54492	635.72968	1364.31018	693.13544	464.36142	1369.80823	633.07428	271.59052	1421.97571	589.41309	70.47596	1457.91479	544.36377	38.71450	1444.75488	737.57599	35.80082	1625.82947	654.10791	637.97021	1609.41333	708.16913	465.50381	1605.89063	565.63269	341.47910	1558.52100	403.37000	201.63248	1502.03894	354.12494	209.46524	1547.81445	465.63400	72.59197	1426.02148	585.96515	1677.61731																					 
